<?xml version="1.0" encoding="UTF-8" standalone="no"?>
<svg
   xmlns:osb="http://www.openswatchbook.org/uri/2009/osb"
   xmlns:dc="http://purl.org/dc/elements/1.1/"
   xmlns:cc="http://creativecommons.org/ns#"
   xmlns:rdf="http://www.w3.org/1999/02/22-rdf-syntax-ns#"
   xmlns:svg="http://www.w3.org/2000/svg"
   xmlns="http://www.w3.org/2000/svg"
   xmlns:sodipodi="http://sodipodi.sourceforge.net/DTD/sodipodi-0.dtd"
   xmlns:inkscape="http://www.inkscape.org/namespaces/inkscape"
   version="1.1"
   id="svg10"
   width="1000"
   height="500"
   viewBox="0 0 1000 500"
   sodipodi:docname="StartNotPressed.svg"
   inkscape:version="1.0.1 (3bc2e813f5, 2020-09-07)"
   inkscape:export-filename="C:\Users\Mateusz\Desktop\Pang\bin\textures\Buttons\StartNotPressed.png"
   inkscape:export-xdpi="96"
   inkscape:export-ydpi="96">
  <metadata
     id="metadata16">
    <rdf:RDF>
      <cc:Work
         rdf:about="">
        <dc:format>image/svg+xml</dc:format>
        <dc:type
           rdf:resource="http://purl.org/dc/dcmitype/StillImage" />
        <dc:title />
      </cc:Work>
    </rdf:RDF>
  </metadata>
  <defs
     id="defs14">
    <linearGradient
       id="linearGradient2805"
       osb:paint="solid">
      <stop
         style="stop-color:#000000;stop-opacity:1;"
         offset="0"
         id="stop2803" />
    </linearGradient>
    <linearGradient
       id="linearGradient2797"
       osb:paint="solid">
      <stop
         style="stop-color:#000000;stop-opacity:1;"
         offset="0"
         id="stop2795" />
    </linearGradient>
  </defs>
  <sodipodi:namedview
     pagecolor="#ffffff"
     bordercolor="#666666"
     borderopacity="1"
     objecttolerance="10"
     gridtolerance="10"
     guidetolerance="10"
     inkscape:pageopacity="0"
     inkscape:pageshadow="2"
     inkscape:window-width="1920"
     inkscape:window-height="1027"
     id="namedview12"
     showgrid="false"
     inkscape:zoom="1.2735405"
     inkscape:cx="228.53822"
     inkscape:cy="227.19426"
     inkscape:window-x="-8"
     inkscape:window-y="22"
     inkscape:window-maximized="1"
     inkscape:current-layer="g18"
     inkscape:document-rotation="0" />
  <g
     inkscape:groupmode="layer"
     inkscape:label="Image"
     id="g18">
    <path
       id="rect22"
       style="fill:#000000;fill-opacity:1;fill-rule:evenodd;stroke-width:0;stroke-linecap:round;stroke-linejoin:round"
       d="M 104.64453 327.43359 L 104.64453 424.91602 C 104.64453 446.76981 122.23801 464.36328 144.0918 464.36328 L 855.9082 464.36328 C 877.76199 464.36328 895.35547 446.76981 895.35547 424.91602 L 895.35547 327.43359 L 854.52344 327.43359 L 854.52344 404.12695 C 854.52344 422.70748 839.5649 437.66602 820.98438 437.66602 L 179.01562 437.66602 C 160.43509 437.66602 145.47656 422.70748 145.47656 404.12695 L 145.47656 327.43359 L 104.64453 327.43359 z " />
    <path
       id="path2816"
       style="fill:#000000;fill-opacity:1;fill-rule:evenodd;stroke-width:0;stroke-linecap:round;stroke-linejoin:round;opacity:0.99800004"
       d="m 144.0918,32.495232 c -21.85379,0 -39.44727,17.59347 -39.44727,39.44726 V 349.53625 c 0,21.85379 17.59348,39.44726 39.44727,39.44726 h 711.8164 c 21.85379,0 39.44727,-17.59347 39.44727,-39.44726 V 71.942492 c 0,-21.85379 -17.59348,-39.44726 -39.44727,-39.44726 z m 34.92382,26.69726 h 641.96876 c 18.58054,0 33.53906,14.95853 33.53906,33.53907 V 328.74718 c 0,18.58053 -14.95853,33.53907 -33.53906,33.53907 H 179.01562 c -18.58054,0 -33.53906,-14.95854 -33.53906,-33.53907 V 92.731562 c 0,-18.58054 14.95852,-33.53907 33.53906,-33.53907 z" />
    <text
       xml:space="preserve"
       style="font-style:normal;font-variant:normal;font-weight:bold;font-stretch:normal;font-size:226.667px;line-height:1.25;font-family:'Ubuntu Mono';-inkscape-font-specification:'Ubuntu Mono, Bold';font-variant-ligatures:normal;font-variant-caps:normal;font-variant-numeric:normal;font-variant-east-asian:normal;opacity:0.998;fill:#000000;fill-opacity:1;stroke:none"
       x="214.9671"
       y="281.00613"
       id="text2824"><tspan
         sodipodi:role="line"
         id="tspan2822"
         x="214.9671"
         y="281.00613">START</tspan></text>
  </g>
</svg>
